<?xml version="1.0" standalone="no"?>
<!DOCTYPE svg PUBLIC "-//W3C//DTD SVG 20010904//EN"
 "http://www.w3.org/TR/2001/REC-SVG-20010904/DTD/svg10.dtd">
<svg version="1.0" xmlns="http://www.w3.org/2000/svg"
 width="700.000000pt" height="700.000000pt" viewBox="0 0 700.000000 700.000000"
 preserveAspectRatio="xMidYMid meet">
<metadata>
Created by potrace 1.11, written by Peter Selinger 2001-2013
</metadata>
<g transform="translate(0.000000,700.000000) scale(0.100000,-0.100000)"
fill="#000000" stroke="none">
<path d="M5098 6234 c-99 -13 -264 -52 -341 -80 -167 -63 -342 -157 -487 -265
-47 -34 -87 -65 -90 -69 -4 -5 -345 -271 -629 -491 -25 -19 -152 -118 -281
-219 -251 -197 -464 -363 -539 -421 -25 -19 -129 -100 -231 -180 -102 -79
-221 -170 -265 -201 -44 -31 -233 -170 -420 -308 -187 -138 -351 -259 -364
-268 -13 -9 -35 -26 -50 -37 -14 -12 -109 -82 -211 -156 -261 -191 -437 -297
-965 -581 -204 -110 -216 -118 -170 -113 28 4 57 8 65 10 8 2 33 6 55 9 22 3
75 10 118 16 289 38 541 33 762 -16 189 -43 365 -115 511 -210 l50 -33 56 53
c31 29 128 100 215 158 271 180 417 278 454 306 20 15 137 101 260 191 123 91
273 202 332 249 59 46 132 103 162 126 29 22 156 122 282 221 125 98 406 318
623 489 217 170 420 329 450 353 377 297 430 334 591 416 143 72 288 127 378
142 19 3 37 8 40 10 4 2 25 6 48 10 23 3 57 8 75 11 61 10 293 11 358 3 101
-14 122 -17 126 -21 2 -2 -14 -29 -35 -58 -65 -92 -110 -191 -140 -305 -19
-75 -25 -170 -22 -350 11 -559 8 -658 -29 -870 -86 -501 -311 -944 -655 -1291
-185 -186 -334 -295 -560 -409 -144 -73 -390 -163 -492 -181 -15 -3 -44 -9
-63 -14 -19 -5 -51 -11 -70 -14 -19 -3 -62 -10 -95 -16 -172 -29 -478 -31
-700 -4 -40 5 -212 37 -321 59 -124 26 -381 123 -541 203 -238 120 -429 251
-602 413 -37 35 -79 75 -94 88 l-26 23 -43 -35 c-40 -32 -171 -116 -362 -231
-80 -49 -115 -69 -196 -114 -25 -13 -49 -28 -55 -32 -35 -26 -438 -230 -454
-230 -6 0 -12 -4 -16 -9 -3 -6 8 -6 27 -1 18 5 89 18 158 29 69 11 143 23 165
26 87 14 430 14 531 0 295 -40 474 -111 774 -308 85 -56 157 -104 160 -107 7
-7 364 -247 470 -316 94 -61 323 -176 440 -222 91 -36 243 -83 315 -98 149
-30 201 -38 325 -50 129 -12 416 -7 505 10 11 2 43 7 70 10 76 11 251 53 340
83 759 248 1317 870 1520 1693 11 45 34 160 39 195 4 23 8 50 10 60 2 11 7 54
11 95 4 41 9 89 11 105 10 91 2 449 -12 515 -3 14 -7 84 -9 155 -4 131 4 190
41 303 37 112 142 290 224 382 18 19 44 49 59 65 53 59 167 161 248 222 l82
62 -57 48 c-62 53 -168 133 -176 133 -3 0 -25 13 -48 29 -135 91 -456 226
-587 247 -23 4 -44 10 -46 14 -11 18 200 232 337 342 74 60 76 63 60 82 -23
25 -225 175 -287 212 -354 211 -743 303 -1097 258z"/>
</g>
</svg>
