<!DOCTYPE svg PUBLIC "-//W3C//DTD SVG 20010904//EN" "http://www.w3.org/TR/2001/REC-SVG-20010904/DTD/svg10.dtd">
<svg version="1.0" xmlns="http://www.w3.org/2000/svg" width="295px" height="257px" viewBox="0 0 2950 2570" preserveAspectRatio="xMidYMid meet">
<g id="layer101" fill="#010101" stroke="none">
 <path d="M0 1285 l0 -1285 1475 0 1475 0 0 1285 0 1285 -1475 0 -1475 0 0 -1285z"/>
 </g>
<g id="layer102" fill="#ffffff" stroke="none">
 <path d="M0 1285 l0 -1285 1475 0 1475 0 0 1285 0 1285 -1475 0 -1475 0 0 -1285z m1668 789 c19 -13 22 -24 22 -77 0 -39 6 -71 15 -84 21 -30 83 -50 210 -68 134 -19 201 -37 279 -77 108 -55 201 -173 240 -307 34 -115 19 -141 -84 -152 -40 -5 -75 -10 -78 -13 -3 -3 2 -14 11 -24 28 -31 77 -146 92 -218 27 -127 13 -270 -35 -365 -18 -34 -24 -39 -43 -33 -37 11 -69 30 -137 80 -165 121 -397 203 -417 147 -3 -10 -24 -56 -46 -103 -107 -227 -345 -347 -598 -300 -87 16 -213 84 -278 149 -76 78 -106 140 -135 282 -5 23 -16 30 -78 49 -74 23 -116 55 -147 114 -23 42 4 68 141 136 113 57 124 65 150 110 66 116 231 193 444 207 l91 6 12 46 c16 60 111 154 200 199 68 34 101 58 101 75 0 9 -78 4 -157 -10 l-33 -5 0 50 c0 56 9 66 65 77 59 10 72 21 100 75 28 55 51 63 93 34z"/>
 <path d="M1775 1733 c-149 -17 -240 -57 -323 -139 l-54 -55 81 -76 c82 -76 117 -124 105 -144 -10 -17 -58 -3 -157 46 -112 54 -175 69 -281 63 -100 -5 -176 -37 -240 -101 -172 -172 -146 -486 52 -632 126 -93 375 -105 503 -24 83 52 128 123 169 264 l27 90 84 -2 c151 -5 201 -21 384 -127 88 -51 113 -61 123 -51 4 4 7 59 7 123 0 102 -3 123 -24 165 -49 99 -150 155 -336 186 -154 26 -214 109 -80 111 17 0 88 -14 158 -32 117 -29 132 -31 175 -19 53 14 99 42 125 77 18 24 18 25 -18 74 -44 59 -116 125 -168 151 -70 36 -228 62 -312 52z m-565 -673 c31 -17 25 -54 -15 -89 -53 -46 -107 -54 -121 -17 -3 8 0 40 6 72 l12 57 49 -6 c26 -3 58 -11 69 -17z"/>
 </g>

</svg>